<?xml version="1.0" encoding="UTF-8"?>
<svg id="Layer_2" xmlns="http://www.w3.org/2000/svg" viewBox="0 0 144.5 175.6">
  <defs>
    <style>
      .cls-1 {
        font-family: JosefinSansRoman-Regular, 'Josefin Sans';
        font-size: 19.4px;
        font-variation-settings: 'wght' 400;
      }

      .cls-1, .cls-2 {
        fill: #fff;
      }

      .cls-3 {
        fill: #83d3c0;
      }

      .cls-4 {
        fill: none;
      }

      .cls-4, .cls-5 {
        stroke: #fff;
        stroke-miterlimit: 10;
      }

      .cls-5, .cls-6 {
        fill: #6eaf9d;
      }
    </style>
  </defs>
  <g id="Layer_1-2" data-name="Layer_1">
    <g>
      <g>
        <rect class="cls-3" width="144.5" height="175.6"/>
        <line class="cls-4" y1="138.53" x2="144.5" y2="138.53"/>
      </g>
      <path class="cls-6" d="M99.22,36.54c-.29.02-.59,0-.91-.07-6.22-1.41-11.13-3.64-17.61-1.97-3.91,1.01-8.29,2.16-11.8,4.19-8.78,5.08-1.78,17.56-2.11,25.66-.15,3.68-1.11,7.77-3.56,10.61-2.48,2.87-6.33,3.96-9.03,6.58-2.7,2.62-4.5,5.93-7.44,8.33-2.24,1.83-7.17,4.12-6.55,7.58.3,1.67-.66,2.91-1.88,3.45l34.99,36.99h71.18v-53.5c-15.09-15.96-30.19-31.92-45.28-47.87Z"/>
      <g>
        <g>
          <path class="cls-6" d="M64.48,73.27c.83.44,1.54,1.1,2.03,1.9.09.15.2.31.37.32.15,0,.27-.1.37-.2.32-.32.64-.64.95-.96-.93-.71-1.79-1.51-2.57-2.38"/>
          <path class="cls-6" d="M63.73,74.57c.26.14.52.3.75.49l-.3-.23c.36.28.69.61.97.97l-.23-.3c.22.29.4.6.63.88.44.54,1.21.76,1.87.55.49-.15.83-.49,1.18-.84.23-.23.45-.45.68-.68.34-.34.48-.79.41-1.26,0-.2-.07-.39-.18-.56-.13-.23-.31-.4-.54-.54l-.05-.04.3.23c-.91-.7-1.75-1.49-2.51-2.34-.53-.59-1.59-.58-2.12,0-.57.63-.56,1.5,0,2.12.87.97,1.84,1.82,2.87,2.62l-.3-2.36c-.35.36-.69.75-1.08,1.07l.3-.23s-.06.04-.09.06l.36-.15s-.07.03-.1.03l.4-.05h-.05c.13.02.27.04.4.06-.03,0-.06-.01-.1-.02l.36.15s-.06-.03-.08-.05l.3.23s-.07-.07-.1-.12l.23.3c-.36-.51-.7-1.03-1.14-1.46s-.96-.82-1.51-1.11c-.35-.19-.77-.26-1.16-.15-.35.1-.73.36-.9.69-.37.7-.2,1.66.54,2.05h0Z"/>
        </g>
        <g>
          <g>
            <g>
              <path class="cls-6" d="M43.65,104.3c-1.41,0-2.76-.52-3.8-1.46-2.3-2.1-2.47-5.68-.38-7.98l15.4-16.92,8.36,7.61-15.4,16.92c-1.06,1.17-2.59,1.84-4.18,1.84h0Z"/>
              <path class="cls-2" d="M54.9,78.64l7.62,6.94-15.06,16.55c-.97,1.07-2.36,1.68-3.81,1.68-1.29,0-2.52-.47-3.46-1.33-1.01-.92-1.61-2.19-1.67-3.57-.07-1.38.41-2.7,1.33-3.71l15.06-16.55M54.84,77.23l-15.73,17.29c-2.28,2.5-2.09,6.41.41,8.69,1.17,1.07,2.66,1.59,4.14,1.59,1.68,0,3.35-.68,4.55-2l15.73-17.29-9.1-8.28h0Z"/>
            </g>
            <g>
              <path class="cls-6" d="M83.67,78.1c-5.84,0-11.44-2.17-15.76-6.1-9.55-8.69-10.25-23.54-1.56-33.09,4.43-4.87,10.75-7.66,17.33-7.66,5.84,0,11.44,2.17,15.76,6.1,9.55,8.69,10.25,23.54,1.56,33.09-4.43,4.87-10.75,7.66-17.33,7.66Z"/>
              <path class="cls-2" d="M83.69,30.75v1h0c5.71,0,11.19,2.12,15.42,5.97,4.53,4.12,7.18,9.76,7.47,15.88.29,6.12-1.82,11.98-5.94,16.51-4.33,4.76-10.52,7.5-16.96,7.5-5.71,0-11.19-2.12-15.42-5.97-9.35-8.51-10.03-23.04-1.53-32.38,4.33-4.76,10.52-7.5,16.96-7.5v-1M83.68,30.75c-6.5,0-12.98,2.64-17.7,7.82-8.89,9.77-8.18,24.9,1.59,33.8,4.59,4.17,10.35,6.23,16.1,6.23,6.5,0,12.98-2.64,17.7-7.82,8.89-9.77,8.18-24.9-1.59-33.8-4.59-4.17-10.35-6.23-16.1-6.23h0Z"/>
            </g>
            <g>
              <path class="cls-6" d="M83.67,73.61c-4.72,0-9.25-1.75-12.74-4.93-3.74-3.4-5.93-8.06-6.17-13.12s1.51-9.9,4.91-13.64c3.58-3.94,8.69-6.19,14.01-6.19,4.72,0,9.25,1.75,12.74,4.93,3.74,3.4,5.93,8.06,6.17,13.12s-1.51,9.9-4.91,13.64c-3.58,3.94-8.69,6.19-14.01,6.19Z"/>
              <path class="cls-2" d="M83.68,35.23v1c4.6,0,9,1.71,12.4,4.8,7.52,6.84,8.07,18.53,1.23,26.05-3.49,3.83-8.46,6.03-13.64,6.03-4.6,0-9-1.71-12.4-4.8-7.52-6.84-8.07-18.53-1.23-26.05,3.49-3.83,8.46-6.03,13.64-6.03v-1M83.68,35.23c-5.28,0-10.55,2.14-14.38,6.36-7.23,7.94-6.65,20.23,1.29,27.46,3.73,3.39,8.41,5.06,13.08,5.06,5.28,0,10.55-2.14,14.38-6.36,7.23-7.94,6.65-20.23-1.29-27.46-3.73-3.39-8.41-5.06-13.08-5.06h0Z"/>
            </g>
            <g>
              <path class="cls-5" d="M70.02,74l-3.16,3.47"/>
              <path class="cls-5" d="M65.67,70.14l-3.21,3.53"/>
            </g>
            <rect class="cls-5" x="52.83" y="74.46" width="18.46" height="8.2" rx="4.1" ry="4.1" transform="translate(69.04 -21.31) rotate(42.3)"/>
          </g>
          <path class="cls-5" d="M96.21,45.37h0c-1-.93-2.58-.87-3.51.13l-14.26,15.35-5.64-6.07c-.93-1-2.51-1.06-3.51-.13h0c-1,.93-1.06,2.51-.13,3.51l7.43,8c.4.43.92.67,1.46.75.03,0,.05,0,.08.01.1.01.2.02.31.02.1,0,.2,0,.31-.02.03,0,.05,0,.08-.01.54-.08,1.06-.32,1.46-.75l16.05-17.28c.93-1,.87-2.58-.13-3.51Z"/>
        </g>
      </g>
      <g>
        <text class="cls-1" transform="translate(33.73 164.51)"><tspan x="0" y="0">ANALİ</tspan></text>
        <path class="cls-2" d="M99.38,162.7l8.33-12.22-10.78.13v1.8l7.44-.13c-.09.13-.18.26-.29.42-.29.42-.63.92-1.02,1.49-.39.58-.81,1.2-1.25,1.86-.45.67-.9,1.35-1.37,2.05-.47.7-.92,1.38-1.37,2.06s-.86,1.3-1.25,1.88-.73,1.09-1.02,1.51-.51.74-.67.95h11.8v-1.8h-8.55Z"/>
      </g>
    </g>
  </g>
</svg>