<?xml version="1.0" encoding="UTF-8"?>
<svg id="Layer_2" xmlns="http://www.w3.org/2000/svg" viewBox="0 0 144.5 175.6">
  <defs>
    <style>
      .cls-1 {
        fill: #f3c861;
      }

      .cls-2, .cls-3 {
        stroke: #fff;
        stroke-miterlimit: 10;
      }

      .cls-2, .cls-4 {
        fill: #efaf58;
      }

      .cls-3 {
        fill: none;
      }

      .cls-5 {
        fill: #f2f2f2;
        font-family: JosefinSansRoman-Regular, 'Josefin Sans';
        font-size: 19.4px;
        font-variation-settings: 'wght' 400;
      }
    </style>
  </defs>
  <g id="Layer_1-2" data-name="Layer_1">
    <g>
      <g>
        <rect class="cls-1" width="144.5" height="175.6"/>
        <line class="cls-3" y1="138.53" x2="144.5" y2="138.53"/>
      </g>
      <text class="cls-5" transform="translate(31.71 164.9)"><tspan x="0" y="0">KARİYER</tspan></text>
      <path class="cls-4" d="M101.38,40.79h-1.39c-.08.13-.16.26-.18.31-.12.25-.23.5-.34.75-.25.59-.48,1.19-.79,1.75-.76,1.41-1.98,2.51-3.49,2.97l7.62,7.83c2.73,2.81-1.51,7.16-4.24,4.36l-17.5-17.97h-15.37c-.7,3.75-1.71,7.38-2.93,10.94.36.15.7.36,1,.63.14.05.28.17.41.24.22.12.44.22.67.32.12.05.23.1.35.16.01,0,.04.02.07.04.09.03.4.16.41.16.35.15.1.05-.14.02,1.68.19,2.92,1.26,3,3.08.07,1.54-1.43,3.26-3,3.08-1.37-.16-2.47-.64-3.71-1.22-.09-.04-.16-.1-.25-.14-.39.25-.86.41-1.43.43-.77,1.83-1.58,3.66-2.44,5.48-.46.97-1.24,1.43-2.07,1.51-.48,2.1-1.05,4.2-1.73,6.27-2.04,6.24-3.42,14.95-8.75,19.24-.22.18-.46.32-.7.43v1.38c14.66,15.06,29.32,30.11,43.99,45.17h56.05v-52.94c-14.37-14.76-28.74-29.52-43.12-44.28Z"/>
      <g>
        <path class="cls-2" d="M81.27,57.68c2.78-1.39,10.41.67,10.67-2.81.4-5.45.28-6.64.63-11.52.24-3.41,10.14-3.3,10.19-.3.13,7.34.19,13.77.19,20.34,0,5-7.21,2.62-13.21,5.49-3.16,1.51-4.86,4.59-4.85,6.64.06,12.28-.17,20.81-.06,24.53h-26.9c.26-14.99.28-19.05.26-19.78-.02-.55-2.72,8.6-5.24,13.8-1.15,2.36-9.93,1.56-8.27-3.67,3.22-10.14,5.46-19.85,8.27-29.55.96-3.31,6.67-3.22,9.06-2.68l.11.13c2.45,4.24,7.03,12.02,7.03,12.02.7-.49,1.55-.77,2.47-.77s1.77.29,2.47.77c0,0,4.85-8.82,6.93-12.41l.26-.24Z"/>
        <path class="cls-2" d="M72.3,69.66c-2.93-.45-5.42,2.04-4.97,4.97.28,1.83,1.77,3.32,3.6,3.6,2.93.45,5.42-2.04,4.97-4.97-.28-1.83-1.77-3.32-3.6-3.6Z"/>
        <path class="cls-2" d="M71.61,60.56c-2.03,0-3.92-.57-5.54-1.54-.09-.05-.18.04-.13.13l5.7,9.49,5.77-9.62c.04-.07-.03-.14-.1-.1-1.65,1.03-3.6,1.63-5.69,1.63Z"/>
        <circle class="cls-2" cx="71.61" cy="47.05" r="10.75"/>
      </g>
    </g>
  </g>
</svg>