<?xml version="1.0" encoding="UTF-8"?>
<svg id="Layer_2" xmlns="http://www.w3.org/2000/svg" viewBox="0 0 144.5 175.6">
  <defs>
    <style>
      .cls-1 {
        fill: #fc6f53;
      }

      .cls-2 {
        fill: none;
      }

      .cls-2, .cls-3 {
        stroke: #fff;
        stroke-miterlimit: 10;
      }

      .cls-4, .cls-3 {
        fill: #d05f48;
      }

      .cls-5 {
        fill: #f2f2f2;
        font-family: JosefinSansRoman-Regular, 'Josefin Sans';
        font-size: 19.4px;
        font-variation-settings: 'wght' 400;
      }

      .cls-6 {
        letter-spacing: 0em;
      }

      .cls-7 {
        letter-spacing: -.03em;
      }
    </style>
  </defs>
  <g id="Layer_1-2" data-name="Layer_1">
    <g>
      <g>
        <rect class="cls-1" width="144.5" height="175.6"/>
        <line class="cls-2" y1="138.53" x2="144.5" y2="138.53"/>
      </g>
      <text class="cls-5" transform="translate(30.61 164.51)"><tspan class="cls-7" x="0" y="0">K</tspan><tspan class="cls-6" x="12.61" y="0">OÇLUK</tspan></text>
      <path class="cls-4" d="M106.4,22.65h-.36c-1.16,1.39-2.39,2.75-3.71,3.94-2.14,1.92-5.13,2.87-5.05,6.18.05,2.41.73,4.41-.19,6.82-.82,2.16-2.52,3.8-4.13,5.38-1.25,1.24-2.98,1.02-4.24,0,.27.22.45.35.56.42.18.09.19.13,0,0-.17-.09-.49-.23-.94-.33-.47-.11-.86-.3-1.17-.54-.32.1-.68.16-1.09.14-4.08-.2-8.01-1.37-12.09-1.53-3.85-.16-7.76.23-11.62.31-5.02.1-13.28-.76-16.26,4.34-.08.13-.16.24-.24.35.25,1.65-.7,3.51-2.86,3.51-.24,0-.46-.02-.66-.07,0,.03-.01.05-.02.08-.21,1.08-.83,1.71-1.59,1.98v38.6c16.31,15.23,32.62,30.45,48.92,45.68h54.84V60.76c-12.7-12.7-25.4-25.4-38.1-38.1Z"/>
      <g>
        <path class="cls-3" d="M89.94,58.97c6.08,9.95,4.83,23.12-3.78,31.72-10.09,10.09-26.44,10.09-36.53,0s-10.09-26.44,0-36.53c8.61-8.61,21.78-9.86,31.72-3.78l5.64-5.76c-13.14-9.05-31.26-7.74-42.95,3.95-13.17,13.17-13.17,34.53,0,47.71,13.17,13.17,34.53,13.17,47.71,0,11.71-11.71,13-29.88,3.9-43.03l-5.71,5.71ZM81.06,67.85c1.7,4.89.61,10.53-3.3,14.44-5.45,5.45-14.27,5.45-19.72,0s-5.45-14.27,0-19.72c3.91-3.91,9.55-4.99,14.44-3.3l5.49-5.62c-8.07-4.33-18.33-3.1-25.14,3.71-8.32,8.32-8.32,21.82,0,30.15s21.82,8.32,30.15,0c6.83-6.83,8.05-17.15,3.66-25.23l-5.58,5.58Z"/>
        <path class="cls-3" d="M70.7,64.85c-2.98-1.15-6.49-.53-8.89,1.88-3.25,3.25-3.25,8.53,0,11.78s8.53,3.25,11.78,0c2.4-2.4,3.03-5.91,1.88-8.89l26.42-26.42c1.63.07,4.8.23,6.3.26.65.03,1.06-.23,1.5-.71,2.18-2.17,6.54-6.52,7.77-7.75.74-.7-.62-.47-1.19-.55-2.74-.24-7.41-.06-9.82-.58-.52-2.41-.33-7.07-.58-9.82-.08-.59.15-1.92-.55-1.19-1.23,1.23-5.58,5.58-7.75,7.77-.48.45-.74.85-.71,1.5.04,1.5.19,4.67.26,6.3l-26.42,26.42Z"/>
      </g>
    </g>
  </g>
</svg>