<?xml version="1.0" encoding="UTF-8"?>
<svg id="Layer_2" xmlns="http://www.w3.org/2000/svg" viewBox="0 0 144.5 175.6">
  <defs>
    <style>
      .cls-1 {
        fill: none;
      }

      .cls-1, .cls-2, .cls-3 {
        stroke: #fff;
        stroke-miterlimit: 10;
      }

      .cls-4 {
        fill: #f2f2f2;
        font-family: JosefinSansRoman-Regular, 'Josefin Sans';
        font-size: 19.4px;
        font-variation-settings: 'wght' 400;
      }

      .cls-5, .cls-2, .cls-3 {
        fill: #2a8dd1;
      }

      .cls-6 {
        fill: #2ca8ff;
      }

      .cls-3 {
        opacity: .97;
      }
    </style>
  </defs>
  <g id="Layer_1-2" data-name="Layer_1">
    <g>
      <g>
        <rect class="cls-6" width="144.5" height="175.6"/>
        <line class="cls-1" y1="138.53" x2="144.5" y2="138.53"/>
      </g>
      <text class="cls-4"><tspan x="17" y="164.51">VERİMLİLİK</tspan></text>
      <path class="cls-5" d="M100.69,36.28c-1.49,1.36-3.45,2.24-5.6,2.91-.23.07-.5.18-.8.29.4,1.06.29,2.33-.58,3.23-1.13,1.16-2.4,2.11-3.7,3.03-.89,1.19-1.77,2.39-2.57,3.64-.73,1.14-1.87,2.86-1.87,3.97,0,2.15-1.85,3.1-3.5,2.86-1.35,1.05-3.66,1.11-4.64-.66,0,0,0,0,0,0-.53-.1-1.06-.34-1.57-.75-.81-.66-1.34-1.58-1.83-2.49-.05-.1-.11-.2-.17-.3-.77-.11-1.52-.53-2.04-1.39-.38-.63-.6-1.22-.74-1.86-.18-.23-.35-.47-.52-.7-2.58-3.06-4.89-6.44-6.98-10.01-.31.58-.64,1.15-1.01,1.7-2.18,3.24-4.15,6.69-6.46,9.82-1.88,2.53-4.05,4.74-6.3,6.91.02.58-.08,1.23-.39,1.63-.72.95-1.5,1.81-2.34,2.65-.17.17-.35.3-.54.42-.53,1-1.18,1.82-1.99,2.35-.05.74-.1,1.49-.16,2.23.67.35,1.21.94,1.42,1.78,1.37,5.59-.22,10.66-2.33,15.84-.24.59-.48,1.18-.73,1.77.25,3.34.38,6.7.27,10.08-.03,1.03-.62,2.13-1.55,2.64l39,40.04h64.04v-56.66c-14.6-14.99-29.21-29.98-43.81-44.97Z"/>
      <g>
        <path class="cls-2" d="M91.72,98.45v-44.65c0-2.94,2.4-5.34,5.34-5.34h.23c2.94,0,5.34,2.4,5.34,5.34v44.65h-10.91Z"/>
        <path class="cls-3" d="M41.88,64.56c0,3.01,2.44,5.46,5.45,5.46s5.46-2.44,5.46-5.46c0-2.09-1.18-3.91-2.91-4.82l10.92-14.38c.89.63,1.98,1,3.15,1,1.46,0,2.78-.57,3.76-1.5,2.72,3.61,5.4,7.46,8.36,11.16-.61.88-.96,1.95-.96,3.09,0,3.01,2.44,5.45,5.46,5.45s5.45-2.44,5.45-5.45c0-1.08-.31-2.09-.85-2.93l8.41-11.08c.96.85,2.22,1.36,3.6,1.36,3.01,0,5.45-2.44,5.45-5.45s-2.44-5.46-5.45-5.46-5.46,2.44-5.46,5.46c0,.61.1,1.2.28,1.75l-8.8,11.59c-.78-.44-1.69-.69-2.64-.69-.85,0-1.67.2-2.39.55-2.94-3.94-6.04-7.79-9-11.73.15-.5.23-1.03.23-1.58,0-3.01-2.44-5.45-5.46-5.45s-5.46,2.44-5.46,5.45c0,.85.19,1.65.54,2.36l-12.03,15.86c-2.86.17-5.12,2.54-5.12,5.44Z"/>
        <path class="cls-2" d="M75.1,98.45v-26.54c0-2.94,2.4-5.34,5.34-5.34h.23c2.94,0,5.34,2.4,5.34,5.34v26.54h-10.91Z"/>
        <path class="cls-2" d="M58.49,98.45v-44.74c0-2.94,2.4-5.34,5.34-5.34h.23c2.94,0,5.34,2.4,5.34,5.34v44.74h-10.91Z"/>
        <path class="cls-2" d="M41.87,98.45v-21.08c0-2.94,2.4-5.34,5.34-5.34h.23c2.94,0,5.34,2.4,5.34,5.34v21.08h-10.91Z"/>
      </g>
    </g>
  </g>
</svg>