<?xml version="1.0" encoding="UTF-8"?>
<svg id="Layer_2" xmlns="http://www.w3.org/2000/svg" viewBox="0 0 104.78 135.93">
  <defs>
    <style>
      .cls-1, .cls-2, .cls-3, .cls-4 {
        stroke: #4986c5;
      }

      .cls-1, .cls-2, .cls-3, .cls-5 {
        stroke-miterlimit: 10;
      }

      .cls-1, .cls-6 {
        fill: #4986c5;
      }

      .cls-2, .cls-3, .cls-5 {
        stroke-width: 1.25px;
      }

      .cls-2, .cls-5 {
        fill: none;
      }

      .cls-7, .cls-4 {
        fill: #fff;
      }

      .cls-8 {
        font-family: JosefinSansRoman-Regular, 'Josefin Sans';
        font-size: 19.4px;
        font-variation-settings: 'wght' 400;
      }

      .cls-3 {
        fill: #b5dcfd;
      }

      .cls-4 {
        stroke-linejoin: round;
      }

      .cls-4, .cls-6, .cls-9 {
        fill-rule: evenodd;
      }

      .cls-10 {
        fill: #d4f3ff;
      }

      .cls-9, .cls-11 {
        fill: #98ccfc;
      }

      .cls-5 {
        stroke: #4986c4;
        stroke-linecap: round;
      }
    </style>
  </defs>
  <g id="Layer_1-2" data-name="Layer_1">
    <g>
      <g>
        <g>
          <path class="cls-3" d="M73.45,5.54h-19.41c0,2.72-2.2,4.92-4.92,4.92s-4.92-2.2-4.92-4.92h-19.41c-.85,0-1.55.7-1.55,1.55v64.59c0,.85.7,1.55,1.55,1.55h48.66c.85,0,1.55-.7,1.55-1.55V7.09c0-.85-.7-1.55-1.55-1.55Z"/>
          <rect class="cls-7" x="27.05" y="9.86" width="44.14" height="59.04"/>
          <g>
            <path class="cls-3" d="M54.04,5.54c0,2.72-2.2,4.92-4.92,4.92s-4.92-2.2-4.92-4.92h-7.05v6.87c0,1.29,1.06,2.35,2.35,2.35h19.22c1.29,0,2.35-1.06,2.35-2.35v-6.87h-7.05Z"/>
            <circle class="cls-2" cx="49.12" cy="5.54" r="4.92"/>
          </g>
        </g>
        <line class="cls-5" x1="51.1" y1="27.69" x2="64.82" y2="27.69"/>
        <line class="cls-5" x1="51.1" y1="34.9" x2="64.82" y2="34.9"/>
        <line class="cls-5" x1="33.42" y1="41.74" x2="64.52" y2="41.74"/>
        <line class="cls-5" x1="33.42" y1="48.95" x2="64.52" y2="48.95"/>
        <line class="cls-5" x1="33.42" y1="56.15" x2="64.52" y2="56.15"/>
        <circle class="cls-11" cx="40.73" cy="23.47" r="4.5"/>
        <path class="cls-9" d="M33.01,36.86c0-4.04,3.46-7.31,7.73-7.31s7.73,3.27,7.73,7.31"/>
        <polygon class="cls-4" points="84.73 71.79 87.63 63.06 87.63 9.86 81.84 9.86 81.84 63.06 84.73 71.79"/>
        <rect class="cls-10" x="82.24" y="31.98" width="4.99" height="12.98"/>
        <polygon class="cls-6" points="84.73 71.47 83.87 68.97 85.6 68.97 84.73 71.47"/>
        <line class="cls-1" x1="81.84" y1="63.06" x2="87.63" y2="63.06"/>
      </g>
      <g>
        <text class="cls-8" transform="translate(0 108.12)"><tspan x="0" y="0" xml:space="preserve">Ö  GEÇMİŞ</tspan><tspan x="19.65" y="23.28">YÜKLE</tspan></text>
        <path d="M19.88,106.76l8.33-12.22-10.78.13v1.8l7.44-.13c-.09.13-.18.26-.29.42-.29.42-.63.92-1.02,1.49-.39.58-.81,1.2-1.25,1.86-.45.67-.9,1.35-1.37,2.05-.47.7-.92,1.38-1.37,2.06s-.86,1.3-1.25,1.88-.73,1.09-1.02,1.51-.51.74-.67.95h11.8v-1.8h-8.55Z"/>
      </g>
    </g>
  </g>
</svg>