<?xml version="1.0" encoding="UTF-8"?>
<svg id="Layer_2" xmlns="http://www.w3.org/2000/svg" viewBox="0 0 144.5 175.6">
  <defs>
    <style>
      .cls-1, .cls-2 {
        stroke: #fff;
        stroke-miterlimit: 10;
      }

      .cls-1, .cls-3 {
        fill: #0564b6;
      }

      .cls-4 {
        fill: #0077df;
      }

      .cls-2 {
        fill: none;
      }

      .cls-5 {
        fill: #f2f2f2;
        font-family: JosefinSansRoman-Regular, 'Josefin Sans';
        font-size: 19.4px;
        font-variation-settings: 'wght' 400;
      }

      .cls-6 {
        opacity: .96;
      }
    </style>
  </defs>
  <g id="Layer_1-2" data-name="Layer_1">
    <g>
      <g>
        <rect class="cls-4" width="144.5" height="175.6"/>
        <line class="cls-2" y1="138.53" x2="144.5" y2="138.53"/>
      </g>
      <text class="cls-5" transform="translate(35.86 165.06)"><tspan x="0" y="0">EĞİTİM </tspan></text>
      <path class="cls-3" d="M102.17,53.17h-49.98v35.13l51.08,49.7h41.23v-43.65c-14.11-13.73-28.22-27.46-42.33-41.19Z"/>
      <g class="cls-6">
        <path class="cls-1" d="M47.14,59.05c1.42-46.16,73.67-28.36,54.58,13.88-.54,1.2-1.29,2.34-2.14,3.34-3.52,4.15-5.85,7.54-4.33,13.59.54,3.48,3.1,5.15-2.45,6.9-7.99,2.53-16.79,4.88-25.28,5.82-2.37.26-1.77-4.67-1.84-6.77-.12-3.51-7.03-2.19-10.25-2.23-9.89.91-4.56-12.17-10.11-15.53-1.36-.82-3.69-1.57-3.93-2.75-.34-1.14.96-2.82,2.05-4.52,2.35-3.34,3.42-7.27,3.61-10.79l.08-.95Z"/>
        <g>
          <circle class="cls-1" cx="75.2" cy="58.97" r="20.32"/>
          <path class="cls-1" d="M76.1,44.14s.01-.03.02-.05c.57-1.72-.85-3.45-2.65-3.23-8.25,1-15.01,7.59-15.89,16.2-.23,2.27-.04,4.49.52,6.57.27,1,1.11,1.75,2.14,1.85h.06c1.72.18,3.09-1.42,2.63-3.09-.42-1.53-.57-3.15-.4-4.82.65-6.26,5.57-11.05,11.56-11.76.93-.11,1.7-.78,2-1.67Z"/>
          <path class="cls-1" d="M87.24,62.33l-6.33-4.37c-.48-2.72-2.85-4.78-5.71-4.78-3.2,0-5.8,2.6-5.8,5.8s2.6,5.8,5.8,5.8c1.48,0,2.82-.55,3.85-1.46l7.7.44c.83.05,1.18-.95.49-1.42Z"/>
          <circle class="cls-1" cx="71.34" cy="73.73" r="1.94"/>
          <circle class="cls-1" cx="79.48" cy="73.99" r="1.94"/>
          <circle class="cls-1" cx="86.74" cy="70.11" r="1.94"/>
          <circle class="cls-1" cx="90.93" cy="63.49" r="1.94"/>
          <circle class="cls-1" cx="91.21" cy="55.79" r="1.94"/>
          <circle class="cls-1" cx="87.85" cy="48.83" r="1.94"/>
          <circle class="cls-1" cx="64.68" cy="69.87" r="1.94"/>
          <circle class="cls-1" cx="81.42" cy="44.63" r="1.94"/>
        </g>
      </g>
    </g>
  </g>
</svg>