<?xml version="1.0" encoding="UTF-8"?>
<svg id="Layer_2" xmlns="http://www.w3.org/2000/svg" viewBox="0 0 100.1 127.71">
  <defs>
    <style>
      .cls-1, .cls-2 {
        fill: #fff;
      }

      .cls-3 {
        font-family: JosefinSansRoman-Regular, 'Josefin Sans';
        font-size: 19.4px;
        font-variation-settings: 'wght' 400;
      }

      .cls-2, .cls-4, .cls-5 {
        fill-rule: evenodd;
      }

      .cls-6, .cls-4 {
        fill: #1b1464;
      }

      .cls-5 {
        fill: #03abf0;
      }
    </style>
  </defs>
  <g id="Layer_1-2" data-name="Layer_1">
    <g>
      <text class="cls-3" transform="translate(19.4 99.83)"><tspan x="0" y="0">CANLI</tspan><tspan x="-19.4" y="23.28">GÖRÜŞME</tspan></text>
      <g>
        <path class="cls-4" d="M50.05,19.57c-5,0-9.06,4.06-9.06,9.06s4.06,9.06,9.06,9.06,9.06-4.06,9.06-9.06-4.06-9.06-9.06-9.06ZM50.05,33.03c-2.43,0-4.4-1.97-4.4-4.4s1.97-4.4,4.4-4.4,4.4,1.97,4.4,4.4-1.97,4.4-4.4,4.4Z"/>
        <path class="cls-5" d="M50.05,0c-15.81,0-28.63,12.82-28.63,28.63s12.82,28.63,28.63,28.63,28.63-12.82,28.63-28.63S65.86,0,50.05,0ZM50.05,3.5c1.12,0,2.02.9,2.02,2.02s-.9,2.02-2.02,2.02-2.02-.9-2.02-2.02.9-2.02,2.02-2.02ZM50.05,42.54c-7.68,0-13.91-6.23-13.91-13.91s6.23-13.91,13.91-13.91,13.91,6.23,13.91,13.91-6.23,13.91-13.91,13.91Z"/>
        <circle class="cls-1" cx="50.05" cy="5.51" r="1.67"/>
        <circle class="cls-1" cx="50.05" cy="28.63" r="4.15"/>
        <path class="cls-2" d="M50.05,14.72c-7.68,0-13.91,6.23-13.91,13.91s6.23,13.91,13.91,13.91,13.91-6.23,13.91-13.91-6.23-13.91-13.91-13.91ZM50.05,38.06c-5.21,0-9.43-4.22-9.43-9.43s4.22-9.43,9.43-9.43,9.43,4.22,9.43,9.43-4.22,9.43-9.43,9.43Z"/>
        <path class="cls-6" d="M50.07,59.49c-6.29,0-12.13-1.92-16.97-5.21l-4.14,13.07c-.63,2,.86,4.05,2.96,4.05h36.26c2.11,0,3.61-2.06,2.96-4.07l-4.22-12.96c-4.82,3.23-10.61,5.12-16.85,5.12Z"/>
      </g>
    </g>
  </g>
</svg>