<?xml version="1.0" encoding="UTF-8"?>
<svg id="Layer_1" data-name="Layer 1" xmlns="http://www.w3.org/2000/svg" viewBox="0 0 250 250">
  <defs>
    <style>
      .cls-1 {
        font-family: JosefinSansRoman-Regular, 'Josefin Sans';
        font-size: 17.58px;
        font-variation-settings: 'wght' 400;
      }

      .cls-1, .cls-2 {
        fill: #b3b3b3;
      }

      .cls-3 {
        fill: #80d0d7;
        stroke: #80d0d7;
      }

      .cls-3, .cls-2 {
        stroke-miterlimit: 10;
      }

      .cls-2 {
        stroke: #999;
        stroke-width: 1.25px;
      }

      .cls-4 {
        letter-spacing: -.01em;
      }

      .cls-5 {
        fill: #fbb415;
        stroke-width: 0px;
      }
    </style>
  </defs>
  <g>
    <path class="cls-3" d="M148.43,57.18l-2.48,2.48c-3.74,3.74-3.74,9.81,0,13.56l17.19,17.19c3.74,3.74,3.74,9.81,0,13.56l-34.1,34.1c-3.74,3.74-9.81,3.74-13.56,0l-34.1-34.1c-3.74-3.74-3.74-9.81,0-13.56l17.95-17.95c3.74-3.74,3.74-9.81,0-13.56l-1.72-1.72c-3.74-3.74-9.81-3.74-13.56,0l-33.53,33.53c-3.74,3.74-3.74,9.81,0,13.56l65.71,65.71c3.74,3.74,9.81,3.74,13.56,0l65.71-65.71c3.74-3.74,3.74-9.81,0-13.56l-33.53-33.53c-3.74-3.74-9.81-3.74-13.56,0Z"/>
    <rect class="cls-5" x="102.52" y="17.77" width="41.16" height="41.16" rx="5.11" ry="5.11" transform="translate(8.94 98.28) rotate(-45)"/>
  </g>
  <path class="cls-2" d="M53.42,185.1h1.49l11.78,31.59h-1.53l-3.16-8.53h-15.66l-3.16,8.53h-1.53l11.78-31.59ZM61.45,206.76l-6.89-18.76c-.14-.39-.69-.39-.84,0l-6.85,18.76h14.58Z"/>
  <path class="cls-2" d="M76.36,215.08c-1.88-1.4-3.18-3.45-3.9-6.16l1.35-.41c.69,2.44,1.84,4.25,3.45,5.44,1.61,1.19,3.44,1.78,5.48,1.78,2.44,0,4.42-.62,5.94-1.87,1.52-1.25,2.28-2.88,2.28-4.9s-.76-3.67-2.28-4.88c-1.52-1.2-3.62-2.24-6.3-3.11-1.87-.6-3.41-1.25-4.65-1.94-1.23-.69-2.23-1.58-2.98-2.66-.75-1.08-1.13-2.44-1.13-4.06,0-1.47.39-2.8,1.17-3.97.78-1.17,1.87-2.09,3.27-2.75,1.4-.66,3-.99,4.81-.99,2.16,0,4.11.6,5.82,1.8,1.71,1.2,2.93,2.99,3.66,5.37l-1.4.36c-.66-2.04-1.72-3.57-3.16-4.58-1.44-1.01-3.08-1.51-4.92-1.51-2.32,0-4.19.58-5.62,1.74-1.43,1.16-2.14,2.67-2.14,4.54,0,1.38.33,2.53.99,3.43.66.9,1.53,1.63,2.59,2.17s2.48,1.1,4.22,1.67c2.89.96,5.2,2.17,6.93,3.63,1.73,1.46,2.59,3.36,2.59,5.71,0,1.59-.41,3.02-1.24,4.29-.83,1.27-1.98,2.24-3.45,2.94-1.47.69-3.14,1.04-5.01,1.04-2.38,0-4.5-.7-6.39-2.1Z"/>
  <path class="cls-2" d="M102.3,193.09h1.2v23.59h-1.2v-23.59Z"/>
  <path class="cls-2" d="M116.93,215.08c-1.88-1.4-3.18-3.45-3.91-6.16l1.35-.41c.69,2.44,1.84,4.25,3.45,5.44,1.61,1.19,3.44,1.78,5.48,1.78,2.44,0,4.41-.62,5.93-1.87,1.52-1.25,2.28-2.88,2.28-4.9s-.76-3.67-2.28-4.88c-1.52-1.2-3.62-2.24-6.29-3.11-1.87-.6-3.42-1.25-4.65-1.94-1.23-.69-2.23-1.58-2.98-2.66-.75-1.08-1.13-2.44-1.13-4.06,0-1.47.39-2.8,1.17-3.97.78-1.17,1.87-2.09,3.27-2.75,1.4-.66,3-.99,4.81-.99,2.17,0,4.11.6,5.82,1.8,1.72,1.2,2.93,2.99,3.66,5.37l-1.4.36c-.66-2.04-1.72-3.57-3.16-4.58-1.44-1.01-3.08-1.51-4.92-1.51-2.32,0-4.19.58-5.62,1.74s-2.14,2.67-2.14,4.54c0,1.38.33,2.53.99,3.43.66.9,1.53,1.63,2.6,2.17,1.07.54,2.47,1.1,4.22,1.67,2.89.96,5.2,2.17,6.93,3.63,1.73,1.46,2.6,3.36,2.6,5.71,0,1.59-.42,3.02-1.24,4.29-.83,1.27-1.98,2.24-3.45,2.94-1.47.69-3.14,1.04-5.01,1.04-2.38,0-4.51-.7-6.39-2.1Z"/>
  <path class="cls-2" d="M148.37,186.54h-9.39v-1.44h20.26v1.44h-9.39v30.15h-1.49v-30.15Z"/>
  <path class="cls-2" d="M102.3,187.66v-2.56h1.2v2.56"/>
  <path class="cls-3" d="M168.4,187.39v-2.68c0-.06.06-.11.13-.11h4.63c.07,0,.13.05.13.11v2.69c0,.06-.06.11-.13.11h-4.63c-.07,0-.13-.06-.13-.12ZM173.28,192.87v23.69c0,.07-.06.12-.13.12h-4.63c-.07,0-.13-.06-.13-.12v-23.68c0-.07.06-.12.13-.12h4.63c.07,0,.13.05.13.12Z"/>
  <path class="cls-3" d="M188.69,197.51l-.1,1.6.6-.8,14.72-13.55c.12-.11.27-.17.43-.17h4.49c.56,0,.83.66.43,1.03l-13.5,12.34c-.24.22-.26.57-.05.82l14.69,16.92c.34.39.05.98-.48.98h-4.57c-.19,0-.36-.08-.48-.22l-12.7-14.88c-.22-.26-.63-.29-.89-.07l-2.38,2.03c-.13.11-.21.28-.21.45v12.09c0,.33-.28.6-.62.6h-3.69c-.34,0-.62-.27-.62-.6v-30.89c0-.33.28-.6.62-.6h3.69c.34,0,.62.27.62.6v12.32Z"/>
  <text class="cls-1" transform="translate(39.46 238.63) scale(.83 1)"><tspan x="0" y="0">İnsan </tspan><tspan class="cls-4" x="47.82" y="0">K</tspan><tspan x="59.53" y="0">aynakları Yönetimi</tspan></text>
</svg>