<?xml version="1.0" encoding="UTF-8"?>
<svg id="Layer_1" data-name="Layer 1" xmlns="http://www.w3.org/2000/svg" viewBox="0 0 250 250">
  <defs>
    <style>
      .cls-1, .cls-2, .cls-3, .cls-4, .cls-5, .cls-6 {
        stroke-width: 0px;
      }

      .cls-1, .cls-3, .cls-4 {
        fill-rule: evenodd;
      }

      .cls-1, .cls-5 {
        fill: #fff;
      }

      .cls-2 {
        fill: #000;
      }

      .cls-3, .cls-6 {
        fill: #1b1464;
      }

      .cls-4 {
        fill: #03abf0;
      }
    </style>
  </defs>
  <g>
    <path class="cls-2" d="M98.16,177.16c-.3.2-.7.42-1.21.67-.51.25-1.1.45-1.79.62-.68.16-1.43.25-2.25.25-1.36-.02-2.6-.26-3.71-.74-1.11-.48-2.05-1.12-2.83-1.95-.78-.82-1.38-1.77-1.79-2.84-.41-1.08-.62-2.22-.62-3.44,0-1.33.21-2.56.64-3.68s1.04-2.1,1.84-2.93c.8-.83,1.73-1.47,2.81-1.93s2.25-.69,3.54-.69c1.07,0,2.04.14,2.91.43s1.62.62,2.24,1l-.96,2.27c-.49-.34-1.09-.67-1.8-.96-.71-.29-1.48-.44-2.32-.44s-1.69.17-2.46.52-1.45.83-2.04,1.45c-.59.62-1.06,1.35-1.39,2.17s-.5,1.72-.5,2.69.15,1.84.46,2.67.74,1.55,1.31,2.17c.57.62,1.25,1.1,2.06,1.44s1.71.52,2.71.52c.9,0,1.71-.14,2.41-.42.71-.28,1.29-.59,1.75-.94l1.01,2.12Z"/>
    <path class="cls-2" d="M100.4,178.49l7.76-18.55h.15l7.78,18.55h-2.73l-5.81-14.8,1.7-1.11-6.48,15.91h-2.37ZM104.96,171.74h6.63l.79,2.07h-8.1l.69-2.07Z"/>
    <path class="cls-2" d="M134.86,179.06l-13.77-13.97.69.17.05,13.23h-2.39v-18.35h.12l13.6,14.02-.54-.12-.05-13.35h2.39v18.38h-.1Z"/>
    <path class="cls-2" d="M140.06,160.68h2.39v15.52h9.04v2.29h-11.43v-17.81Z"/>
    <path class="cls-2" d="M155.38,160.68h2.39v17.81h-2.39v-17.81Z"/>
    <path class="cls-2" d="M74.39,206.53c-.25.21-.59.42-1.03.63-.44.21-.93.39-1.47.55s-1.08.3-1.64.39c-.56.1-1.09.15-1.6.15-1.43,0-2.72-.22-3.87-.67s-2.13-1.06-2.94-1.85-1.43-1.72-1.86-2.78c-.43-1.07-.64-2.22-.64-3.45,0-1.51.24-2.85.73-4.02.48-1.17,1.15-2.16,1.98-2.97.84-.81,1.81-1.43,2.92-1.85,1.11-.42,2.27-.63,3.49-.63,1.05,0,2.02.12,2.91.36.89.24,1.67.55,2.34.95l-.79,2.19c-.34-.18-.76-.36-1.24-.53-.48-.17-.98-.31-1.49-.42-.51-.11-.98-.16-1.4-.16-1.07,0-2.02.16-2.87.48-.85.32-1.58.78-2.19,1.38-.62.6-1.09,1.32-1.42,2.17-.33.85-.49,1.79-.49,2.85,0,.95.16,1.83.49,2.65.33.81.8,1.51,1.42,2.09.62.58,1.34,1.03,2.18,1.34.84.31,1.77.47,2.81.47.59,0,1.18-.06,1.77-.17.59-.11,1.09-.29,1.5-.54v-3.5h-3.52v-2.32h5.94v7.19Z"/>
    <path class="cls-2" d="M77.84,199.16c0-1.23.23-2.4.7-3.5.47-1.1,1.12-2.07,1.96-2.92.84-.85,1.8-1.51,2.89-1.98s2.27-.71,3.54-.71,2.4.24,3.5.71c1.1.48,2.07,1.14,2.92,1.98.85.85,1.51,1.82,1.98,2.92.48,1.1.71,2.27.71,3.52s-.24,2.42-.71,3.52c-.48,1.1-1.13,2.07-1.97,2.89-.84.83-1.81,1.48-2.91,1.95s-2.27.7-3.52.7-2.44-.23-3.54-.69c-1.09-.46-2.06-1.1-2.89-1.93-.84-.83-1.49-1.79-1.96-2.88-.47-1.09-.7-2.29-.7-3.58ZM80.3,199.16c0,.95.17,1.83.5,2.65.34.81.81,1.53,1.43,2.16s1.32,1.11,2.12,1.46c.8.35,1.66.53,2.6.53s1.8-.18,2.6-.53c.8-.35,1.49-.84,2.09-1.45.6-.62,1.07-1.33,1.42-2.16.35-.82.52-1.7.52-2.64s-.17-1.84-.52-2.66c-.34-.82-.82-1.55-1.42-2.18-.6-.63-1.31-1.12-2.12-1.48-.81-.35-1.68-.53-2.6-.53s-1.81.18-2.62.54-1.52.85-2.12,1.48-1.06,1.35-1.39,2.18c-.33.83-.49,1.7-.49,2.62ZM83.63,186.91c.26-.25.56-.38.89-.38.31,0,.6.13.87.38s.41.56.41.92c0,.39-.14.71-.41.96-.27.25-.56.37-.87.37-.33,0-.62-.12-.89-.37-.26-.25-.39-.56-.39-.94s.13-.69.39-.95ZM88.25,186.91c.27-.25.57-.38.9-.38.3,0,.58.13.86.38s.42.56.42.92c0,.39-.14.71-.42.96-.28.25-.57.37-.86.37-.33,0-.63-.12-.9-.37-.27-.25-.41-.56-.41-.94s.14-.69.41-.95Z"/>
    <path class="cls-2" d="M104.79,190.24c.9,0,1.74.12,2.5.36s1.43.59,2,1.06c.57.47,1.01,1.05,1.33,1.74s.48,1.48.48,2.36c0,.71-.1,1.4-.31,2.07-.21.67-.54,1.29-1.01,1.84-.47.55-1.08.99-1.85,1.33s-1.71.5-2.85.5h-2.64v6.55h-2.39v-17.81h4.73ZM105.03,199.19c.71,0,1.29-.11,1.76-.32.47-.21.83-.49,1.1-.83s.45-.69.57-1.07c.11-.38.17-.75.17-1.11s-.06-.73-.19-1.11c-.12-.38-.32-.73-.59-1.07s-.62-.61-1.06-.83c-.44-.21-.96-.32-1.59-.32h-2.76v6.65h2.59ZM107.96,200.57l4.66,7.49h-2.76l-4.75-7.42,2.86-.07Z"/>
    <path class="cls-2" d="M118.43,201.75c0,.8.19,1.52.58,2.16.39.63.9,1.13,1.55,1.49.65.36,1.37.54,2.16.54.84,0,1.58-.18,2.24-.54.66-.36,1.17-.86,1.54-1.49.37-.63.55-1.35.55-2.16v-11.5h2.36v11.58c0,1.3-.3,2.43-.89,3.4-.59.97-1.4,1.72-2.41,2.24-1.02.53-2.15.79-3.4.79s-2.36-.26-3.38-.79c-1.02-.53-1.82-1.27-2.41-2.24-.59-.97-.89-2.1-.89-3.4v-11.58h2.39v11.5ZM119.44,186.73c.26-.25.56-.38.89-.38.31,0,.6.13.87.38.27.25.41.56.41.92,0,.39-.14.71-.41.96s-.56.37-.87.37c-.33,0-.62-.12-.89-.37-.26-.25-.39-.56-.39-.94s.13-.69.39-.95ZM124.06,186.73c.27-.25.57-.38.9-.38.3,0,.58.13.86.38.28.25.42.56.42.92,0,.39-.14.71-.42.96s-.57.37-.86.37c-.33,0-.63-.12-.9-.37s-.41-.56-.41-.94.14-.69.41-.95Z"/>
    <path class="cls-2" d="M143.51,193.42c-.61-.31-1.27-.58-2-.81-.72-.23-1.43-.35-2.12-.35-.95,0-1.71.22-2.28.67-.57.44-.85,1.03-.85,1.77,0,.56.18,1.03.55,1.42.37.39.85.72,1.43,1s1.2.54,1.86.79c.54.2,1.08.43,1.63.7.54.27,1.03.6,1.47,1,.44.39.78.88,1.03,1.45.25.58.38,1.28.38,2.12,0,.95-.23,1.82-.7,2.59-.47.77-1.14,1.38-2.01,1.82s-1.91.67-3.13.67c-.77,0-1.52-.09-2.23-.26s-1.38-.41-1.98-.7c-.61-.3-1.15-.6-1.63-.91l1.06-1.87c.39.28.85.55,1.35.8.51.25,1.04.46,1.6.6.56.15,1.1.22,1.63.22.57,0,1.13-.1,1.68-.29s.99-.51,1.35-.94c.36-.43.54-.99.54-1.7,0-.59-.16-1.09-.48-1.5s-.74-.76-1.26-1.05c-.52-.29-1.08-.55-1.69-.78-.58-.2-1.15-.43-1.71-.69-.57-.26-1.09-.58-1.58-.95-.48-.37-.88-.83-1.18-1.37-.3-.54-.46-1.2-.46-1.97,0-.94.23-1.75.68-2.45s1.07-1.25,1.86-1.65c.79-.4,1.69-.62,2.71-.65,1.15,0,2.16.14,3.04.42.88.28,1.65.62,2.33,1.01l-.91,1.85ZM136.91,212c.16.18.39.33.68.46.29.12.61.18.97.18.43,0,.81-.09,1.15-.28.34-.19.5-.46.5-.83,0-.28-.12-.53-.34-.76s-.64-.34-1.23-.34c-.26,0-.54.03-.84.1-.3.07-.55.13-.76.2l-.42-1.11,1.72-1.58,1.75.05-1.77,2.07-.52-.54c.18-.08.4-.15.65-.2.25-.05.5-.07.73-.07.89-.02,1.61.16,2.17.52.56.36.84.9.84,1.63,0,.56-.16,1.01-.48,1.37-.32.35-.73.62-1.24.79-.51.17-1.07.26-1.68.26s-1.13-.09-1.56-.28-.78-.41-1.05-.65l.74-.96Z"/>
    <path class="cls-2" d="M148.64,208.05v-18.38h.02l9.34,13.28-1.01-.22,9.34-13.06h.02v18.38h-2.39v-12.96l.17,1.21-6.7,9.51h-.05l-6.82-9.51.39-1.11v12.86h-2.32Z"/>
    <path class="cls-2" d="M171.47,190.24h11.58v2.29h-9.19v5.42h8.2v2.32h-8.2v5.49h9.53v2.29h-11.92v-17.81Z"/>
  </g>
  <g>
    <path class="cls-3" d="M121.43,76.6c-6.35,0-11.5,5.15-11.5,11.5s5.15,11.5,11.5,11.5,11.5-5.15,11.5-11.5-5.15-11.5-11.5-11.5ZM121.43,93.69c-3.09,0-5.59-2.5-5.59-5.59s2.5-5.59,5.59-5.59,5.59,2.5,5.59,5.59-2.5,5.59-5.59,5.59Z"/>
    <path class="cls-4" d="M121.43,51.76c-20.07,0-36.35,16.27-36.35,36.35s16.27,36.35,36.35,36.35,36.35-16.27,36.35-36.35-16.27-36.35-36.35-36.35ZM121.43,56.19c1.42,0,2.56,1.15,2.56,2.56s-1.15,2.56-2.56,2.56-2.56-1.15-2.56-2.56,1.15-2.56,2.56-2.56ZM121.43,105.76c-9.75,0-17.66-7.91-17.66-17.66s7.91-17.66,17.66-17.66,17.66,7.91,17.66,17.66-7.91,17.66-17.66,17.66Z"/>
    <circle class="cls-5" cx="121.43" cy="58.76" r="2.12"/>
    <circle class="cls-5" cx="121.43" cy="88.1" r="5.27"/>
    <path class="cls-1" d="M121.43,70.44c-9.75,0-17.66,7.91-17.66,17.66s7.91,17.66,17.66,17.66,17.66-7.91,17.66-17.66-7.91-17.66-17.66-17.66ZM121.43,100.08c-6.61,0-11.97-5.36-11.97-11.97s5.36-11.97,11.97-11.97,11.97,5.36,11.97,11.97-5.36,11.97-11.97,11.97Z"/>
    <path class="cls-6" d="M121.45,127.28c-7.99,0-15.4-2.44-21.55-6.61l-5.25,16.59c-.81,2.54,1.09,5.14,3.76,5.14h46.03c2.68,0,4.58-2.62,3.75-5.17l-5.36-16.45c-6.11,4.1-13.47,6.5-21.39,6.5Z"/>
  </g>
</svg>