<?xml version="1.0" encoding="UTF-8"?>
<svg id="Layer_2" xmlns="http://www.w3.org/2000/svg" viewBox="0 0 136.6 181.79">
  <defs>
    <style>
      .cls-1 {
        font-family: JosefinSansRoman-Regular, 'Josefin Sans';
        font-size: 13.85px;
        font-variation-settings: 'wght' 400;
      }

      .cls-1, .cls-2 {
        fill: #b3b3b3;
      }

      .cls-2 {
        stroke: #999;
        stroke-width: 1.25px;
      }

      .cls-2, .cls-3 {
        stroke-miterlimit: 10;
      }

      .cls-3 {
        fill: #80d0d7;
        stroke: #80d0d7;
      }

      .cls-4 {
        fill: #fbb415;
      }

      .cls-5 {
        letter-spacing: -.01em;
      }
    </style>
  </defs>
  <g id="Layer_1-2" data-name="Layer_1">
    <g>
      <g>
        <path class="cls-3" d="M85.83,35.63l-1.95,1.95c-2.95,2.95-2.95,7.73,0,10.68l13.54,13.54c2.95,2.95,2.95,7.73,0,10.68l-26.86,26.86c-2.95,2.95-7.73,2.95-10.68,0l-26.86-26.86c-2.95-2.95-2.95-7.73,0-10.68l14.14-14.14c2.95-2.95,2.95-7.73,0-10.68l-1.35-1.35c-2.95-2.95-7.73-2.95-10.68,0l-26.41,26.41c-2.95,2.95-2.95,7.73,0,10.68l51.76,51.76c2.95,2.95,7.73,2.95,10.68,0l51.76-51.76c2.95-2.95,2.95-7.73,0-10.68l-26.41-26.41c-2.95-2.95-7.73-2.95-10.68,0Z"/>
        <rect class="cls-4" x="49.67" y="4.6" width="32.42" height="32.42" rx="5.11" ry="5.11" transform="translate(4.58 52.68) rotate(-45)"/>
      </g>
      <path class="cls-2" d="M10.99,136.39h1.17l9.28,24.88h-1.21l-2.49-6.72H5.41l-2.49,6.72h-1.21l9.28-24.88ZM17.32,153.45l-5.43-14.78c-.11-.31-.55-.31-.66,0l-5.39,14.78h11.48Z"/>
      <path class="cls-2" d="M29.07,160.01c-1.48-1.1-2.51-2.72-3.07-4.85l1.07-.32c.54,1.92,1.45,3.35,2.72,4.28,1.27.94,2.71,1.4,4.32,1.4,1.92,0,3.48-.49,4.68-1.48,1.2-.98,1.79-2.27,1.79-3.86s-.6-2.89-1.79-3.84c-1.2-.95-2.85-1.76-4.96-2.45-1.47-.47-2.69-.98-3.66-1.53-.97-.55-1.75-1.25-2.35-2.1-.59-.85-.89-1.92-.89-3.2,0-1.16.31-2.2.93-3.13.62-.92,1.47-1.65,2.58-2.17,1.1-.52,2.36-.78,3.79-.78,1.71,0,3.24.47,4.59,1.42,1.35.95,2.31,2.36,2.88,4.23l-1.1.28c-.52-1.61-1.35-2.81-2.49-3.61-1.14-.79-2.43-1.19-3.87-1.19-1.83,0-3.3.46-4.42,1.37-1.13.91-1.69,2.1-1.69,3.57,0,1.09.26,1.99.78,2.7.52.71,1.2,1.28,2.04,1.71s1.95.87,3.32,1.32c2.27.76,4.09,1.71,5.46,2.86,1.36,1.15,2.04,2.65,2.04,4.5,0,1.26-.33,2.38-.98,3.38-.65,1-1.56,1.77-2.72,2.31-1.16.54-2.48.82-3.95.82-1.87,0-3.55-.55-5.03-1.65Z"/>
      <path class="cls-2" d="M49.49,142.69h.95v18.58h-.95v-18.58Z"/>
      <path class="cls-2" d="M61.02,160.01c-1.48-1.1-2.51-2.72-3.08-4.85l1.07-.32c.55,1.92,1.45,3.35,2.72,4.28,1.27.94,2.71,1.4,4.32,1.4,1.92,0,3.48-.49,4.67-1.48,1.2-.98,1.79-2.27,1.79-3.86s-.6-2.89-1.79-3.84c-1.2-.95-2.85-1.76-4.96-2.45-1.47-.47-2.69-.98-3.66-1.53-.97-.55-1.75-1.25-2.35-2.1-.59-.85-.89-1.92-.89-3.2,0-1.16.31-2.2.92-3.13.62-.92,1.48-1.65,2.58-2.17,1.1-.52,2.37-.78,3.79-.78,1.71,0,3.24.47,4.59,1.42,1.35.95,2.31,2.36,2.88,4.23l-1.1.28c-.52-1.61-1.35-2.81-2.49-3.61-1.14-.79-2.43-1.19-3.88-1.19-1.83,0-3.3.46-4.42,1.37s-1.69,2.1-1.69,3.57c0,1.09.26,1.99.78,2.7.52.71,1.2,1.28,2.05,1.71.84.43,1.95.87,3.32,1.32,2.27.76,4.09,1.71,5.46,2.86,1.36,1.15,2.05,2.65,2.05,4.5,0,1.26-.33,2.38-.98,3.38-.65,1-1.56,1.77-2.72,2.31-1.16.54-2.48.82-3.95.82-1.87,0-3.55-.55-5.03-1.65Z"/>
      <path class="cls-2" d="M85.78,137.53h-7.39v-1.14h15.96v1.14h-7.39v23.74h-1.17v-23.74Z"/>
      <path class="cls-2" d="M49.49,138.41v-2.02h.95v2.02"/>
      <path class="cls-3" d="M101.56,137.39v-1.37h3.85v1.37h-3.85ZM105.4,142.69v19.57h-3.85v-19.57h3.85Z"/>
      <path class="cls-3" d="M117.54,146.58l-.08,1.31.48-.65,11.6-11.08c.09-.09.21-.14.34-.14h3.54c.44,0,.66.54.34.84l-10.64,10.09c-.19.18-.2.47-.04.67l11.57,13.83c.27.32.04.8-.37.8h-3.6c-.15,0-.28-.07-.38-.18l-10-12.17c-.18-.21-.49-.24-.7-.06l-1.88,1.66c-.1.09-.16.23-.16.37v9.89c0,.27-.22.49-.49.49h-2.91c-.27,0-.49-.22-.49-.49v-25.26c0-.27.22-.49.49-.49h2.91c.27,0,.49.22.49.49v10.07Z"/>
      <text class="cls-1" transform="translate(0 178.56) scale(.83 1)"><tspan x="0" y="0">İnsan </tspan><tspan class="cls-5" x="37.67" y="0">K</tspan><tspan x="46.89" y="0">aynakları Yönetimi</tspan></text>
    </g>
  </g>
</svg>