<?xml version="1.0" encoding="UTF-8"?>
<svg id="Layer_2" xmlns="http://www.w3.org/2000/svg" viewBox="0 0 144.5 175.6">
  <defs>
    <style>
      .cls-1 {
        fill: none;
      }

      .cls-1, .cls-2 {
        stroke: #fff;
        stroke-miterlimit: 10;
      }

      .cls-2, .cls-3 {
        fill: #e88f7a;
      }

      .cls-4 {
        fill: #f2f2f2;
        font-family: JosefinSansRoman-Regular, 'Josefin Sans';
        font-size: 19.4px;
        font-variation-settings: 'wght' 400;
      }

      .cls-5 {
        fill: #fcad8e;
      }
    </style>
  </defs>
  <g id="Layer_1-2" data-name="Layer_1">
    <g>
      <g>
        <rect class="cls-5" width="144.5" height="175.6"/>
        <line class="cls-1" y1="138.53" x2="144.5" y2="138.53"/>
      </g>
      <text class="cls-4" transform="translate(28.16 164.9)"><tspan x="0" y="0">İŞVEREN</tspan></text>
      <g>
        <path class="cls-3" d="M51.36,37.27s0,.1,0,.15v2.87c0,1.2-1.74,1.29-2.02.29-.15.02-.3,0-.44-.04-.09.89-.18,1.78-.29,2.68-.06.53-.4.84-.79.94-.01.13-.02.26-.03.38-.09,1.06-1.81,1.47-2.03.27,0-.04-.01-.08-.02-.11,0,.06,0,.13,0,.19,0,.53-.31.84-.68.94-.15.1-.32.17-.49.21-.03.32-.1.64-.23.94-.53,1.21-1.53,2.13-2.61,3-.19.22-.42.39-.67.53-1.95,1.51-3.89,2.99-3.64,5.71.15,1.57-.83,2.46-2.03,2.69l16.07,15.77h17.35v-20.27c-5.82-5.71-11.64-11.42-17.46-17.13Z"/>
        <path class="cls-3" d="M77.31,41.46s0,.1,0,.15v2.87c0,1.2-1.74,1.29-2.02.29-.15.02-.3,0-.44-.04-.09.89-.18,1.78-.29,2.68-.06.53-.4.84-.79.94-.01.13-.02.26-.03.38-.09,1.06-1.81,1.47-2.03.27,0-.04-.01-.08-.02-.11,0,.06,0,.13,0,.19,0,.53-.31.84-.68.94-.15.1-.32.17-.49.21-.03.32-.1.64-.23.94-.53,1.21-1.53,2.13-2.61,3-.19.22-.42.39-.67.53-1.95,1.51-3.89,2.99-3.64,5.71.15,1.57-.83,2.46-2.03,2.69l16.07,15.77h17.35v-20.27c-5.82-5.71-11.64-11.42-17.46-17.13Z"/>
        <path class="cls-3" d="M94.91,31.8c.02.14.03.28.03.43v8.16c0,3.4-4.93,3.67-5.74.82-.41.04-.84.01-1.26-.1-.27,2.53-.52,5.07-.82,7.6-.18,1.5-1.14,2.38-2.25,2.67-.03.36-.05.72-.08,1.09-.26,3.01-5.15,4.16-5.76.76-.02-.11-.04-.22-.05-.33,0,.18,0,.36,0,.54-.01,1.51-.88,2.37-1.94,2.66-1.52,1.08-3.9.94-4.42-1.16-.02.08-.04.17-.06.25-.4,1.39-1.43,2.02-2.5,2.05-1.38.79-3.53.15-4.3-1.38-.34-.04-.68-.14-1-.3-.03.33-.05.66-.08.99-.25,2.5-2.91,3.34-4.56,2.39-1.62.48-3.69-.68-3.96-2.71-.14-1.03-.21-2.06-.26-3.1-1.72.83-4.18.04-4.23-2.45-.01-.55-.01-1.1-.02-1.65-.2.39-.42.77-.67,1.15-.73,1.1-2.2,1.62-3.44,1.3-1.32.7-3.03.53-3.79-.87-.01.62-.02,1.25-.03,1.87-.02,2.38-2.43,3.22-4.15,2.55-.01,1.66-.12,3.3-.44,4.91-.12.6-.38,1.05-.71,1.38-.41.88-1.25,1.54-2.53,1.54-.62,0-1.13-.17-1.54-.42v2.33c3.34,3.28,6.68,6.55,10.02,9.83,1.94,1.9.28,4.56-1.79,4.87-.17,1.8-.49,3.62-1.87,4.91-.03.03-.07.05-.1.08l54.61,53.58h49.29v-57.55c-16.53-16.22-33.06-32.44-49.59-48.66Z"/>
      </g>
      <g>
        <g>
          <circle class="cls-2" cx="71.01" cy="46.82" r="7.02"/>
          <circle class="cls-2" cx="46.44" cy="41.23" r="5.59" transform="translate(-6 7.97) rotate(-9.22)"/>
          <circle class="cls-2" cx="90.75" cy="33.92" r="4.62" transform="translate(-4.26 14.97) rotate(-9.22)"/>
          <path class="cls-2" d="M98.28,39.05c-.08-.1-.25-.12-.6-.13-1.02,0-2.84-.02-3.87,0-.82.72-1.88,1-3.06,1s-2.24-.28-3.06-1c-1.03-.01-2.85,0-3.87,0-.35,0-.51.04-.6.13-.62,1.83-3.58,13.1-4.07,14.79-.05.34.2.24.64.28.79,0,2.47.02,3.09-.01.35,0,.57-.17.64-.51.18-.68.59-2.32.98-3.83.29-1.15.57-2.22.7-2.73.24-1.05.07.16.09.59-.11,2.5-.39,9.04-.63,14.75-.98-3.6-1.85-6.71-2.2-7.76-.13-.14-.37-.18-.91-.2-1.55,0-4.31-.03-5.88,0-1.24,1.09-2.86,1.52-4.64,1.52s-3.4-.43-4.64-1.52c-1.57-.02-4.33,0-5.88,0-.53.01-.78.05-.91.2-.21.61-.58,1.91-1.05,3.59-1.2-4.45-2.56-9.5-3-10.77-.1-.12-.3-.15-.72-.16-1.23,0-3.43-.02-4.68,0-.99.87-2.28,1.21-3.7,1.21s-2.71-.34-3.7-1.21c-1.25-.01-3.45,0-4.68,0-.42.01-.62.04-.72.16-.75,2.21-4.33,15.84-4.92,17.89-.05.41.24.3.77.34.95,0,2.98.02,3.73-.02.42,0,.69-.21.77-.61.22-.82.72-2.8,1.19-4.63.36-1.39.68-2.68.84-3.3.29-1.27.09.2.1.72-.24,5.56-1.19,27.58-1.26,29.58.07.38.49.15,1.3.23,1.1,0,2.92,0,4.03,0,.66-.06,1.24.19,1.33-.39.11-1.74.69-13.01.9-16.79h.66c.21,3.78.79,15.05.9,16.79.09.58.66.32,1.33.39,1.1,0,2.92,0,4.03,0,.81-.07,1.23.15,1.3-.23-.03-.81-.21-4.93-.42-9.9.13,0,.29,0,.47.02,1.2,0,3.75.03,4.69-.02.53,0,.86-.26.97-.77.28-1.03.9-3.52,1.49-5.81.45-1.74.86-3.37,1.06-4.15.36-1.59.11.25.13.9-.3,6.98-1.49,34.64-1.59,37.15.09.48.62.19,1.63.28,1.39,0,3.67,0,5.06,0,.83-.08,1.56.24,1.67-.49.14-2.18.87-16.34,1.13-21.09h.83c.26,4.75,1,18.91,1.13,21.09.11.72.83.41,1.67.49,1.39,0,3.67,0,5.06,0,1.01-.09,1.54.19,1.63-.28-.1-2.51-1.29-30.17-1.59-37.15.02-.65-.23-2.49.13-.9.2.78.61,2.41,1.06,4.15.59,2.3,1.21,4.78,1.49,5.81.1.51.44.77.97.77.94.05,3.49.02,4.69.02.66-.06,1.04.09.97-.43-.21-.71-.69-2.51-1.31-4.81.48,0,.95,0,1.32,0,.55-.05,1.02.16,1.1-.32.09-1.44.57-10.76.74-13.88h.55c.17,3.13.66,12.45.74,13.88.07.48.55.27,1.1.32.91,0,2.42,0,3.33,0,.67-.06,1.01.13,1.07-.19-.06-1.65-.85-19.86-1.05-24.46.01-.43-.15-1.64.09-.59.13.52.4,1.58.7,2.73.39,1.51.8,3.15.98,3.83.07.34.29.51.64.51.62.03,2.3.01,3.09.01.44-.04.68.06.64-.28-.49-1.69-3.45-12.96-4.07-14.79ZM53.81,75.6c-.3-6.89-.63-14.77-.76-17.78.01-.52-.19-1.98.1-.72.16.62.49,1.92.84,3.3.47,1.83.97,3.81,1.19,4.63.08.41.35.61.77.61.14,0,.33.01.54.01-1.04,3.86-2.08,7.75-2.68,9.94Z"/>
        </g>
        <path class="cls-2" d="M121.23,71.16h0c-1.4-1.3-3.62-1.22-4.93.18l-20,21.53-7.91-8.52c-1.3-1.4-3.52-1.49-4.93-.18h0c-1.4,1.3-1.49,3.52-.18,4.93l10.42,11.22c.56.6,1.29.95,2.05,1.06.04,0,.08.01.11.02.14.02.29.03.43.02.14,0,.29,0,.43-.02.04,0,.08,0,.12-.02.76-.11,1.49-.45,2.05-1.06l22.51-24.24c1.3-1.4,1.22-3.62-.18-4.93Z"/>
      </g>
    </g>
  </g>
</svg>